# xmcd CD database file
#
# Track frame offsets:
#	150
#	17680
#	34429
#	59287
#	79387
#	89777
#	102403
#	124349
#	144365
#	161358
#	176324
#	195108
#
# Disc length: 2901 seconds
#
# Revision: 1
# Processed by: cddbd v1.5.1PL2 Copyright (c) Steve Scherf et al.
# Submitted via: CDex 1.51
#
DISCID=9c0b530c
DTITLE=Various Artist - The moonlight voices
DYEAR=2002
DGENRE=New Age
TTITLE0=Dawn
TTITLE1=Woodland Winds
TTITLE2=Melody
TTITLE3=Butterfly
TTITLE4=The Moon Light Voices
TTITLE5=The cliff of Dooneen
TTITLE6=Bummel Petrus
TTITLE7=Meditation
TTITLE8=Spancil Hill
TTITLE9=In The Gloaming
TTITLE10=Andante
TTITLE11=Adieu Tristesse
EXTD=YEAR: 2002
EXTT0=
EXTT1=
EXTT2=
EXTT3=
EXTT4=
EXTT5=
EXTT6=
EXTT7=
EXTT8=
EXTT9=
EXTT10=
EXTT11=
PLAYORDER=
